<mxfile host="www.draw.io" modified="2020-02-07T20:58:21.888Z" agent="Mozilla/5.0 (X11; Linux x86_64; rv:71.0) Gecko/20100101 Firefox/71.0" etag="tnJ9XQClsQrs_GJh4AQa" version="12.6.6" type="github">
  <diagram id="eXIJV7iSofsIrsKYSaDT" name="Page-1">
    <mxGraphModel dx="1021" dy="615" grid="1" gridSize="10" guides="1" tooltips="1" connect="1" arrows="1" fold="1" page="1" pageScale="1" pageWidth="827" pageHeight="1169" math="0" shadow="0">
      <root>
        <mxCell id="0"/>
        <mxCell id="1" parent="0"/>
        <mxCell id="5h19UglneVw-TMdxn_Fd-7" value="" style="shape=image;verticalLabelPosition=bottom;verticalAlign=top;imageAspect=0;image=https://github.com/kubernetes/kubernetes/raw/master/logo/logo.png;dashed=1;" vertex="1" parent="1">
          <mxGeometry x="160" y="470" width="50" height="50" as="geometry"/>
        </mxCell>
      </root>
    </mxGraphModel>
  </diagram>
</mxfile>
